<?xml version="1.0" standalone="no"?>
<!DOCTYPE svg PUBLIC "-//W3C//DTD SVG 20010904//EN"
 "http://www.w3.org/TR/2001/REC-SVG-20010904/DTD/svg10.dtd">
<svg version="1.0" xmlns="http://www.w3.org/2000/svg"
 width="960.000000pt" height="960.000000pt" viewBox="0 0 960.000000 960.000000"
 preserveAspectRatio="xMidYMid meet">

<g transform="translate(0.000000,960.000000) scale(0.100000,-0.100000)"
fill="#000000" stroke="none">
<path d="M6080 7541 c-8 -5 -35 -12 -60 -16 -24 -4 -51 -11 -60 -16 -8 -4 -42
-15 -75 -24 -70 -19 -228 -67 -234 -71 -2 -2 4 -37 14 -79 15 -62 21 -75 38
-75 16 0 18 5 13 28 -19 76 -17 91 17 105 59 25 102 39 129 41 14 2 34 10 43
19 9 10 20 15 25 12 5 -3 11 -1 15 5 3 5 19 10 34 10 16 0 34 6 40 13 15 19
88 39 113 31 15 -4 19 -2 16 7 -5 17 -47 22 -68 10z"/>
<path d="M6355 7379 c-155 -52 -214 -69 -233 -69 -12 0 -55 -9 -95 -19 -282
-76 -355 -96 -457 -127 -63 -19 -149 -46 -190 -59 -126 -41 -316 -91 -490
-130 -91 -20 -167 -39 -169 -41 -18 -17 235 26 271 46 10 6 31 10 48 10 31 0
110 18 210 48 30 9 69 17 85 19 37 4 193 40 254 59 100 31 150 44 246 65 55
12 117 30 137 40 21 11 53 19 73 19 34 0 185 36 273 66 23 8 49 14 56 14 19 0
37 -49 35 -91 -3 -38 20 -168 32 -184 4 -6 15 -59 24 -120 9 -60 20 -114 25
-120 4 -5 11 -41 15 -80 4 -38 20 -119 35 -180 16 -60 33 -143 40 -184 6 -40
14 -81 19 -90 5 -9 12 -47 16 -86 4 -38 16 -106 26 -150 11 -44 24 -109 29
-145 5 -36 14 -83 19 -105 5 -22 17 -71 26 -110 9 -38 20 -100 25 -137 5 -38
17 -82 25 -99 15 -28 15 -33 1 -54 -9 -13 -44 -38 -78 -55 -35 -18 -74 -38
-88 -46 -14 -7 -54 -24 -90 -38 -36 -13 -64 -30 -62 -35 1 -6 -15 -19 -35 -28
-78 -33 -88 -38 -94 -46 -4 -5 -24 -10 -45 -12 -50 -4 -87 -16 -148 -49 -27
-14 -56 -26 -65 -26 -9 0 -52 -18 -95 -40 -43 -22 -84 -40 -90 -40 -15 -1 -81
-58 -75 -65 6 -5 192 87 224 110 22 17 35 19 35 5 0 -5 -5 -10 -12 -10 -6 0
-8 -3 -5 -7 4 -3 15 1 26 11 10 9 52 26 92 37 41 11 115 41 164 65 50 24 94
44 99 44 5 0 32 11 60 24 79 37 246 111 296 132 25 10 46 19 48 20 9 5 -32
190 -44 197 -8 4 -14 21 -14 37 0 16 -5 41 -10 56 -6 15 -7 31 -2 38 9 11 -7
107 -48 301 -10 50 -40 198 -65 330 -44 229 -64 328 -84 405 -5 19 -17 76 -25
125 -9 50 -27 155 -41 235 -14 80 -32 166 -40 192 -8 26 -15 57 -15 70 -1 67
-18 79 -85 57z"/>
<path d="M4680 7265 c-86 -23 -115 -31 -175 -55 -11 -4 -67 -17 -125 -29 -126
-26 -270 -70 -270 -83 0 -5 8 -7 18 -5 9 3 37 10 62 15 120 28 225 53 325 77
61 14 145 38 188 52 l78 27 32 -35 c18 -19 47 -52 65 -72 17 -21 32 -35 32
-33 0 20 -110 165 -125 165 -5 0 -53 -11 -105 -24z"/>
<path d="M5500 7053 c-199 -15 -416 -105 -546 -228 -26 -25 -53 -45 -61 -45
-7 0 -13 -3 -13 -7 0 -5 -16 -26 -35 -48 -19 -22 -35 -43 -35 -48 0 -4 -10
-21 -22 -37 -12 -16 -19 -33 -15 -36 4 -4 53 40 110 97 138 139 152 151 221
184 32 16 61 35 63 42 3 7 11 13 18 13 7 0 37 11 66 24 72 31 112 37 255 41
67 1 127 6 133 10 7 3 17 2 24 -3 7 -5 31 -13 54 -17 24 -4 45 -11 49 -16 3
-5 17 -9 32 -9 15 0 36 -6 47 -13 11 -8 45 -27 75 -44 30 -16 81 -45 113 -64
32 -19 66 -38 76 -44 55 -32 92 -76 129 -155 53 -114 76 -176 69 -194 -7 -17
13 -88 28 -98 10 -7 10 -159 0 -203 -2 -11 1 -8 7 8 7 15 16 27 21 27 5 0 6
-12 3 -27 -3 -16 -8 -54 -12 -86 -3 -32 -13 -65 -21 -73 -15 -15 -53 -123 -53
-150 0 -9 -22 -43 -50 -77 -27 -34 -50 -67 -50 -74 0 -18 -32 -55 -144 -165
-54 -54 -96 -98 -92 -98 4 0 1 -7 -8 -15 -8 -8 -19 -15 -24 -15 -5 0 -15 -11
-22 -25 -13 -24 -82 -93 -150 -149 -19 -16 -34 -33 -32 -38 1 -4 -25 -29 -58
-54 -65 -51 -100 -94 -77 -94 7 0 45 33 84 73 39 39 128 126 198 192 202 191
234 225 228 241 -4 10 -1 14 8 13 16 -4 69 29 69 42 0 4 21 36 48 71 80 106
145 256 173 396 9 50 9 92 -1 200 -6 75 -17 143 -22 150 -6 7 -15 36 -19 64
-8 51 -88 235 -119 272 -8 10 -32 30 -54 45 -109 73 -172 111 -181 108 -5 -2
-16 5 -25 15 -19 23 -186 96 -248 108 -61 11 -156 18 -212 13z"/>
<path d="M3940 7029 c-19 -5 -44 -7 -55 -4 -39 8 -293 -92 -333 -132 -8 -7
-33 -26 -56 -42 -23 -16 -59 -49 -78 -73 -20 -24 -55 -63 -78 -88 -79 -86
-110 -154 -110 -245 0 -68 -21 -175 -33 -168 -10 6 -7 -18 9 -82 5 -20 4 -26
-5 -21 -23 15 -10 -12 14 -28 14 -9 25 -24 25 -32 0 -13 -3 -14 -15 -4 -12 10
-13 6 -9 -27 13 -94 117 -373 140 -373 7 0 -6 42 -19 58 -14 18 -57 125 -52
130 6 7 25 -9 25 -21 0 -14 37 -89 69 -141 12 -19 21 -41 20 -48 -4 -26 24
-78 44 -84 18 -4 156 -187 222 -293 6 -9 30 -36 53 -61 23 -25 50 -54 59 -65
10 -11 31 -35 47 -53 45 -52 23 -49 -26 3 -24 26 -52 56 -62 68 -15 15 -21 17
-24 7 -3 -7 27 -44 67 -83 39 -38 71 -74 71 -79 0 -5 8 -7 18 -4 11 4 34 -8
67 -37 90 -76 166 -157 160 -168 -5 -7 -18 0 -37 18 -23 21 -28 23 -20 8 6
-11 38 -43 72 -70 34 -28 83 -69 108 -93 25 -23 52 -40 59 -38 7 3 13 1 13 -5
0 -11 40 -48 53 -49 16 0 6 19 -13 25 -11 3 -20 11 -20 16 0 11 36 -11 103
-63 27 -21 54 -38 59 -38 13 0 -76 84 -102 96 -32 15 -175 139 -175 151 0 5
-22 28 -50 53 -27 25 -63 59 -80 75 -17 17 -44 39 -60 49 -45 30 -125 107
-125 122 0 7 -4 14 -8 16 -13 5 -153 167 -201 233 -25 33 -53 66 -64 74 -10 7
-16 19 -13 26 2 7 -1 16 -8 18 -19 8 -77 97 -71 108 4 5 -1 9 -10 9 -9 0 -21
13 -26 30 -6 17 -17 30 -25 30 -8 0 -14 7 -14 16 0 9 -8 28 -18 42 -41 61 -74
134 -64 141 7 4 5 20 -8 49 -11 23 -22 58 -26 77 -3 19 -12 35 -19 35 -8 0
-18 21 -24 51 -6 28 -16 59 -22 70 -6 13 -7 25 -1 32 13 16 9 107 -6 134 -16
29 -15 53 3 53 11 0 13 10 8 50 -7 62 14 167 39 192 10 10 18 23 18 29 0 15
38 57 145 162 108 105 169 148 255 177 36 12 74 27 85 33 38 20 209 36 277 26
35 -5 86 -13 113 -17 28 -5 65 -16 84 -25 19 -9 39 -17 46 -17 21 0 249 -141
305 -188 78 -67 94 -78 89 -66 -10 26 -137 126 -238 188 -135 82 -207 112
-331 137 -101 20 -154 22 -210 8z m-655 -1049 c7 -33 6 -34 -9 -15 -8 11 -15
34 -15 50 0 37 13 17 24 -35z"/>
<path d="M3625 6989 c-11 -17 0 -20 21 -4 17 13 17 14 2 15 -9 0 -20 -5 -23
-11z"/>
<path d="M3584 6853 c-72 -54 -109 -86 -118 -103 -5 -8 9 1 30 22 21 20 66 54
98 77 33 23 55 41 49 41 -5 0 -32 -17 -59 -37z"/>
<path d="M3321 6745 c-35 -40 -76 -115 -63 -115 5 0 22 21 39 48 16 26 37 59
47 75 25 38 14 34 -23 -8z"/>
<path d="M4575 6560 c-181 -33 -285 -191 -285 -432 0 -54 4 -98 8 -98 5 0 12
56 15 124 5 108 9 132 35 188 74 164 200 220 420 188 112 -16 206 -96 270
-229 33 -69 36 -82 36 -171 1 -131 -27 -184 -136 -252 -29 -18 -36 -28 -31
-45 4 -18 -1 -25 -23 -35 -15 -7 -42 -27 -58 -44 -17 -17 -41 -36 -54 -43 -12
-7 -20 -16 -16 -22 6 -10 -10 -8 -86 12 -49 13 -60 10 -25 -6 17 -8 45 -14 64
-15 29 0 32 -2 21 -15 -7 -8 -15 -29 -19 -47 -9 -44 -78 -82 -136 -74 -31 4
-36 2 -21 -6 55 -31 176 25 176 83 0 26 7 33 55 56 l54 27 26 -28 c14 -15 25
-38 25 -51 0 -13 4 -26 8 -29 4 -2 6 11 4 30 -3 21 -16 46 -34 64 -27 28 -31
29 -51 15 -12 -8 -26 -15 -32 -15 -16 0 96 94 119 100 13 4 23 17 26 34 4 20
21 38 59 64 39 27 62 53 84 92 28 53 29 58 24 160 -6 100 -19 161 -44 191 -6
8 -18 29 -28 48 -36 71 -137 149 -234 180 -37 12 -153 13 -216 1z"/>
<path d="M3080 6465 c-154 -44 -195 -57 -225 -70 -16 -7 -56 -18 -88 -25 -67
-13 -66 -8 -15 -125 16 -38 36 -83 43 -100 7 -16 21 -55 31 -85 11 -30 27 -64
37 -74 9 -11 17 -30 17 -42 0 -20 15 -62 55 -149 8 -16 21 -48 30 -70 9 -22
25 -50 37 -62 12 -13 18 -29 14 -38 -6 -17 21 -93 41 -113 7 -7 16 -25 20 -40
3 -15 21 -60 40 -100 18 -39 33 -76 33 -82 0 -5 18 -45 40 -89 22 -43 40 -82
40 -86 0 -4 13 -33 28 -64 16 -31 32 -69 36 -84 4 -16 20 -57 36 -91 17 -35
30 -68 30 -75 0 -6 20 -52 45 -101 25 -49 45 -97 45 -105 0 -19 20 -56 39 -71
8 -6 11 -18 8 -28 -5 -11 6 -41 27 -79 55 -99 57 -100 99 -92 21 4 37 13 37
21 0 7 19 18 43 25 23 6 47 15 54 21 7 5 18 6 25 2 16 -10 81 -5 89 7 3 5 30
13 60 18 80 14 192 62 177 77 -4 4 -31 -3 -59 -15 -28 -11 -60 -21 -70 -21
-11 0 -19 -4 -19 -10 0 -5 -7 -10 -16 -10 -8 0 -12 5 -9 10 3 6 1 10 -4 10 -6
0 -11 -4 -11 -9 0 -4 -28 -11 -62 -14 -35 -4 -88 -15 -118 -27 -30 -11 -63
-20 -72 -20 -10 0 -27 -6 -38 -12 -30 -19 -38 -5 -96 157 -8 22 -24 47 -34 57
-11 9 -20 23 -20 32 0 9 -4 16 -10 16 -5 0 -9 15 -8 33 0 17 -8 52 -19 77 -32
72 -78 178 -118 275 -21 50 -49 115 -62 145 -14 30 -34 74 -43 96 -10 23 -23
45 -29 48 -6 4 -11 17 -11 29 0 12 -12 47 -26 77 -14 30 -36 84 -48 121 -13
36 -35 87 -50 114 -14 28 -26 54 -26 60 0 5 -17 48 -39 95 -21 47 -53 123 -71
170 -37 96 -52 130 -108 249 -22 46 -38 89 -36 96 3 7 37 25 77 40 84 33 306
105 323 105 7 0 16 5 19 10 10 15 -22 11 -115 -15z"/>
<path d="M3181 6424 c0 -11 3 -14 6 -6 3 7 2 16 -1 19 -3 4 -6 -2 -5 -13z"/>
<path d="M4212 5943 c-156 -155 -224 -330 -221 -573 2 -166 52 -311 144 -415
19 -22 35 -43 35 -46 0 -12 118 -98 175 -128 80 -41 163 -61 257 -61 163 0
284 77 358 228 19 39 37 71 40 71 9 1 50 -89 50 -109 0 -29 36 -96 55 -104 72
-27 248 75 286 166 19 47 4 92 -47 133 -42 34 -47 36 -74 25 -25 -10 -30 -18
-29 -44 l1 -31 9 33 c11 37 43 44 71 15 9 -10 24 -24 32 -31 10 -8 16 -29 16
-57 0 -59 -39 -103 -131 -150 -109 -55 -147 -44 -162 48 -3 20 -12 44 -20 51
-8 8 -19 28 -26 44 -18 42 -39 48 -52 14 -24 -67 -34 -89 -53 -116 -103 -147
-262 -197 -461 -145 -106 27 -151 53 -249 139 -27 24 -106 124 -106 134 0 3
-13 27 -29 54 -78 132 -86 431 -15 599 41 98 107 195 175 256 32 30 59 57 59
60 0 18 -25 1 -88 -60z"/>
<path d="M4576 5725 c3 -16 10 -55 14 -85 l7 -55 2 66 c1 46 -4 71 -15 85 -15
18 -15 17 -8 -11z"/>
<path d="M3430 5582 c0 -11 7 -23 15 -26 9 -3 28 -31 42 -62 19 -41 28 -53 37
-44 7 7 8 13 0 18 -6 4 -25 33 -43 64 -36 64 -51 79 -51 50z"/>
<path d="M4745 5408 c-11 -6 -22 -14 -25 -18 -11 -15 -67 -38 -110 -44 -46 -7
-152 15 -177 36 -7 6 -13 6 -13 1 0 -17 74 -45 132 -50 74 -7 134 10 183 52
41 35 44 43 10 23z"/>
<path d="M4894 5399 c-50 -14 -128 -96 -168 -176 -37 -74 -42 -93 -27 -93 4 0
16 19 25 43 24 63 98 151 153 181 50 29 126 37 146 17 6 -6 18 -11 27 -11 53
0 141 -133 159 -240 l9 -55 1 44 c2 72 -30 159 -79 214 -60 69 -162 100 -246
76z"/>
<path d="M3574 5364 c20 -38 115 -142 116 -127 0 6 -18 31 -40 54 -22 24 -40
48 -40 54 0 5 -12 18 -26 29 l-26 18 16 -28z"/>
<path d="M4730 5336 c0 -2 8 -10 18 -17 15 -13 16 -12 3 4 -13 16 -21 21 -21
13z"/>
<path d="M5469 4963 c-122 -113 -199 -192 -199 -205 0 -6 26 16 58 48 31 33
100 99 152 147 52 47 90 86 84 87 -6 0 -49 -35 -95 -77z"/>
<path d="M3890 5006 c0 -3 9 -10 20 -16 11 -6 20 -8 20 -6 0 3 -9 10 -20 16
-11 6 -20 8 -20 6z"/>
<path d="M3972 4933 c21 -20 40 -35 43 -32 7 7 -54 69 -69 69 -6 0 6 -17 26
-37z"/>
<path d="M5605 4835 c-22 -8 -42 -15 -45 -15 -3 -1 6 -6 19 -11 18 -7 28 -6
41 6 9 8 24 15 33 15 9 0 19 5 22 10 9 14 -23 12 -70 -5z"/>
<path d="M5236 4734 c-22 -21 -20 -27 4 -12 11 7 20 16 20 20 0 12 -7 10 -24
-8z"/>
<path d="M5150 4650 c-14 -11 -20 -20 -14 -20 6 0 19 9 29 20 23 25 17 25 -15
0z"/>
<path d="M4370 4580 c0 -5 5 -10 11 -10 5 0 7 5 4 10 -3 6 -8 10 -11 10 -2 0
-4 -4 -4 -10z"/>
<path d="M5038 4543 c-21 -14 -38 -30 -38 -35 0 -5 18 6 40 23 22 18 40 34 40
36 0 5 -3 3 -42 -24z"/>
<path d="M4240 4540 c0 -4 -8 -6 -19 -3 -10 3 -22 0 -25 -6 -9 -13 52 -15 72
-2 10 6 9 10 -7 14 -12 3 -21 1 -21 -3z"/>
<path d="M4620 4450 c0 -5 5 -10 11 -10 5 0 7 5 4 10 -3 6 -8 10 -11 10 -2 0
-4 -4 -4 -10z"/>
<path d="M4934 4438 l-19 -23 23 19 c12 11 22 21 22 23 0 8 -8 2 -26 -19z"/>
<path d="M2554 4362 c-50 -18 -135 -74 -164 -109 -70 -84 -158 -195 -225 -285
-69 -92 -85 -107 -115 -113 -89 -16 -206 -48 -219 -60 -43 -41 37 -59 133 -30
27 8 51 13 54 11 2 -3 -36 -54 -85 -113 -136 -165 -154 -192 -142 -214 7 -14
21 -19 51 -19 35 0 47 6 77 38 20 21 54 67 76 102 36 60 147 223 166 244 12
13 318 55 454 62 l120 7 22 -86 c39 -155 94 -245 168 -278 88 -41 256 -5 199
42 -12 9 -26 9 -69 -1 -70 -17 -93 -3 -134 82 -27 58 -71 196 -71 225 0 17 67
17 100 0 19 -10 24 -19 22 -40 -3 -24 0 -27 26 -27 31 0 62 26 62 52 0 32 -56
66 -132 78 -40 7 -77 13 -83 15 -5 1 -20 66 -33 144 -30 190 -53 239 -126 272
-51 23 -68 23 -132 1z m81 -58 c21 -22 40 -61 53 -114 16 -61 44 -231 39 -236
-2 -2 -73 -11 -158 -19 -85 -8 -194 -21 -244 -29 -49 -9 -91 -13 -93 -11 -6 6
156 230 213 294 110 126 153 151 190 115z"/>
<path d="M4744 4259 c-14 -15 -16 -24 -8 -37 24 -38 107 -32 112 8 7 47 -68
69 -104 29z"/>
<path d="M3590 4091 c-51 -27 -123 -93 -163 -150 -23 -35 -29 -23 -17 39 8 43
7 58 -5 77 -18 27 -68 31 -99 8 -17 -13 -18 -21 -7 -126 9 -86 9 -144 0 -250
-13 -155 -9 -169 43 -169 63 0 67 9 66 128 -2 97 0 112 24 165 69 147 307 318
333 237 4 -14 15 -20 35 -20 36 0 46 15 30 45 -17 33 -52 45 -123 45 -48 -1
-74 -7 -117 -29z"/>
<path d="M4179 4087 c-179 -61 -447 -263 -545 -412 -108 -162 1 -229 221 -138
54 23 204 105 230 125 6 5 37 28 70 53 l60 44 7 -51 c3 -28 15 -63 25 -77 41
-56 135 -77 207 -47 35 14 69 53 60 68 -10 15 -61 8 -79 -12 -40 -44 -115 -14
-115 47 0 22 29 141 52 212 9 29 8 36 -7 48 -10 7 -17 14 -14 15 2 2 13 8 24
14 15 8 21 23 23 57 3 38 -1 48 -20 61 -32 23 -120 20 -199 -7z m121 -42 c0
-8 -5 -26 -12 -40 -10 -22 -9 -28 2 -35 12 -7 12 -10 -2 -15 -10 -4 -20 -17
-24 -28 -16 -55 -119 -146 -313 -276 -120 -81 -255 -126 -276 -91 -17 28 65
131 185 232 146 122 268 207 355 245 59 26 85 29 85 8z"/>
<path d="M6670 4086 c-177 -74 -346 -190 -469 -322 -74 -79 -103 -125 -115
-180 -6 -25 -2 -37 17 -60 23 -26 31 -29 84 -27 104 3 265 77 439 202 l82 58
5 -50 c8 -64 29 -94 80 -118 68 -30 149 -23 192 17 14 13 25 30 25 39 0 23
-63 20 -85 -5 -20 -23 -77 -27 -92 -7 -28 34 -25 57 29 265 10 38 9 44 -8 57
-16 12 -16 14 -3 15 24 0 49 33 49 64 0 15 -11 37 -25 51 -21 21 -33 25 -87
25 -42 -1 -81 -8 -118 -24z m124 -53 c-4 -16 -11 -33 -16 -40 -5 -7 -5 -14 2
-18 14 -9 13 -25 -2 -25 -7 -1 -23 -22 -35 -48 -18 -39 -43 -63 -130 -129
-205 -155 -310 -214 -389 -221 -52 -4 -54 -4 -54 20 0 99 485 488 608 488 19
0 22 -4 16 -27z"/>
<path d="M7450 4086 c-176 -62 -350 -189 -350 -254 0 -41 53 -54 265 -64 146
-7 198 -13 225 -26 46 -23 48 -58 4 -87 -71 -48 -295 -94 -353 -73 -20 7 -22
13 -17 43 6 31 4 35 -14 35 -25 0 -70 -42 -70 -65 0 -41 90 -85 174 -85 98 0
286 61 346 112 53 44 64 102 26 137 -39 37 -110 52 -284 60 -97 5 -168 13
-174 19 -40 40 130 159 283 198 56 14 66 14 126 -2 61 -16 65 -16 81 0 16 16
15 19 -12 41 -53 42 -156 47 -256 11z"/>
<path d="M5448 4024 c-249 -13 -293 -22 -293 -59 0 -29 47 -30 239 -6 88 11
217 23 286 26 l125 6 -35 -20 c-19 -11 -69 -34 -110 -51 -114 -48 -489 -234
-543 -270 -26 -18 -50 -42 -53 -54 -8 -32 44 -86 83 -86 15 0 111 15 213 34
102 19 230 40 283 46 139 18 247 2 247 -35 0 -16 43 -31 59 -20 18 10 12 43
-11 64 -12 11 -54 28 -96 37 -99 22 -235 15 -482 -25 -102 -16 -189 -26 -193
-22 -15 15 112 82 469 245 222 102 280 138 269 168 -16 40 -71 43 -457 22z"/>
<path d="M4733 4008 c-48 -53 -78 -152 -78 -258 0 -66 4 -82 33 -135 39 -72
85 -106 150 -112 80 -8 162 43 101 62 -12 4 -26 2 -32 -4 -6 -6 -26 -11 -44
-11 -45 0 -77 33 -98 102 -24 74 -9 185 35 273 39 78 37 99 -10 103 -27 2 -41
-3 -57 -20z"/>
<path d="M2550 3100 l0 -100 50 0 50 0 0 45 0 45 79 0 c107 0 131 10 131 53 0
54 -10 57 -167 57 l-143 0 0 -100z m198 48 c3 -27 2 -28 -47 -28 -47 0 -51 2
-51 23 0 33 9 38 55 35 35 -3 40 -6 43 -30z"/>
<path d="M2960 3099 l0 -100 53 3 52 3 3 43 3 42 44 0 44 0 3 -42 3 -43 53 -3
52 -3 0 100 0 101 -55 0 -55 0 0 -40 0 -40 -45 0 -45 0 0 40 0 40 -55 0 -55 0
0 -101z"/>
<path d="M3435 3193 c-38 -10 -45 -24 -45 -94 0 -66 1 -69 30 -84 39 -20 217
-21 266 0 l35 14 -3 73 c-3 66 -5 74 -28 85 -24 12 -211 17 -255 6z m172 -25
c15 -19 16 -117 2 -134 -12 -15 -76 -19 -96 -6 -13 8 -20 122 -9 140 10 16 91
15 103 0z"/>
<path d="M3770 3190 c0 -6 27 -10 60 -10 l59 0 3 -87 3 -88 53 -3 52 -3 0 90
0 91 60 0 c33 0 60 4 60 10 0 6 -65 10 -175 10 -110 0 -175 -4 -175 -10z"/>
<path d="M4225 3193 c-38 -10 -45 -24 -45 -95 l0 -69 35 -15 c42 -17 204 -18
255 -1 l35 12 0 75 c0 69 -2 75 -25 87 -24 12 -211 17 -255 6z m177 -30 c3
-10 5 -41 7 -70 2 -57 -12 -73 -64 -73 -52 0 -65 15 -65 78 0 32 5 63 12 70 7
7 33 12 59 12 36 0 48 -4 51 -17z"/>
<path d="M4660 3187 c-23 -11 -25 -19 -28 -85 l-3 -73 35 -14 c25 -11 69 -14
156 -13 l120 1 0 54 0 53 -86 0 c-64 0 -85 -3 -82 -12 3 -7 19 -14 36 -16 58
-6 36 -62 -24 -62 -45 0 -55 18 -52 92 l3 63 48 3 c42 3 47 1 47 -17 0 -18 6
-21 50 -21 43 0 50 3 50 20 0 10 -9 24 -19 30 -28 14 -220 13 -251 -3z"/>
<path d="M5072 3103 l3 -98 46 -3 c40 -3 47 0 52 18 3 12 3 32 1 46 -4 24 -3
25 43 22 47 -3 48 -3 56 -45 l8 -43 54 0 54 0 -6 38 c-3 20 -14 44 -24 53 -18
16 -18 17 1 22 27 7 28 62 1 77 -11 5 -81 10 -156 10 l-136 0 3 -97z m196 68
c8 -5 12 -17 10 -27 -2 -15 -14 -20 -51 -22 -46 -3 -47 -3 -47 27 0 29 2 31
38 31 20 0 43 -4 50 -9z"/>
<path d="M5541 3164 c-12 -19 -21 -37 -21 -39 0 -2 -13 -27 -30 -55 -16 -28
-30 -55 -30 -60 0 -6 20 -10 45 -10 34 0 47 5 55 20 9 17 21 20 70 20 49 0 61
-3 70 -20 8 -15 21 -20 55 -20 25 0 45 5 45 11 0 6 -24 51 -52 99 l-53 90 -67
0 c-65 0 -66 0 -87 -36z m109 -54 c11 -22 19 -40 18 -41 -29 -7 -78 -7 -78 0
0 10 33 80 37 81 2 0 12 -18 23 -40z"/>
<path d="M5882 3103 l3 -98 50 0 50 0 3 43 3 42 80 0 c101 0 119 9 119 59 0
26 -5 41 -16 45 -9 3 -78 6 -155 6 l-140 0 3 -97z m206 45 c3 -27 2 -28 -47
-28 -50 0 -51 1 -51 31 0 30 1 30 48 27 43 -3 47 -5 50 -30z"/>
<path d="M6300 3100 l0 -100 50 0 50 0 0 45 0 45 49 0 c47 0 49 -1 48 -27 -1
-63 0 -63 53 -63 l50 0 0 100 0 100 -50 0 -50 0 0 -40 0 -40 -50 0 -50 0 0 40
0 40 -50 0 -50 0 0 -100z"/>
<path d="M6712 3143 c47 -48 57 -65 60 -98 l3 -40 55 0 55 0 1 39 c0 36 7 46
64 98 l65 58 -57 0 c-52 0 -58 -2 -92 -40 -37 -41 -46 -47 -46 -30 0 6 -12 24
-27 40 -23 27 -33 30 -82 30 l-55 0 56 -57z"/>
</g>
</svg>
